<?xml version="1.0" encoding="UTF-8" standalone="no"?>
<!DOCTYPE svg PUBLIC "-//W3C//DTD SVG 1.1//EN" "http://www.w3.org/Graphics/SVG/1.1/DTD/svg11.dtd">
<svg version="1.1" xmlns="http://www.w3.org/2000/svg" xmlns:xlink="http://www.w3.org/1999/xlink" preserveAspectRatio="xMidYMid meet" viewBox="0 0 72.93 39" width="72.93" height="39"><defs><path d="M26.42 6.06C25.77 7.48 25.61 8.14 25.54 10.08C25.46 12 25.54 12.66 26.02 14C26.35 14.91 26.73 15.67 26.85 15.72C27.16 15.82 41.54 1.46 41.34 1.26C41.26 1.18 40.58 0.91 39.82 0.63C37.97 0 35.52 -0.18 33.8 0.2C30.54 0.93 27.81 3.11 26.42 6.06Z" id="a1rPEz3QuV"></path><path d="M27.86 17.31L28.57 17.99L29.25 18.7L36.76 11.19L44.27 3.69C43.91 3.29 43.7 3.07 43.66 3.03C43.33 2.68 43.01 2.4 42.93 2.4C42.83 2.4 39.42 5.76 35.32 9.85C34.33 10.85 31.84 13.33 27.86 17.31Z" id="aarWkYwcg"></path><path d="M30.52 19.61C30.52 19.71 31.17 20.04 31.98 20.37C33.2 20.88 33.85 20.98 36.21 20.98C38.83 20.98 39.09 20.93 40.65 20.17C42.83 19.11 45.15 16.68 45.96 14.61C46.44 13.39 46.57 12.66 46.57 10.49C46.57 8.14 46.49 7.68 45.89 6.37C45.51 5.58 45.18 4.93 45.13 4.93C45.08 4.93 41.79 8.19 37.77 12.21C33.78 16.2 30.52 19.54 30.52 19.61Z" id="a3ifSHEulf"></path><path d="M61.36 38.29L62.62 38.29L63.89 38.29C63.89 36.32 63.89 35.23 63.89 35.01C63.89 32.66 63.99 31.49 64.24 31.01C65.17 29.22 68.36 29.12 69.17 30.89C69.32 31.24 69.45 32.93 69.45 34.88C69.45 35.11 69.45 36.25 69.45 38.29L70.74 38.29L72 38.29C71.95 35.81 71.93 34.42 71.92 34.15C71.85 29.6 71.75 29.29 70.1 28.08C69.04 27.27 65.76 27.32 64.67 28.13C64.62 28.17 64.36 28.36 63.89 28.71L63.89 26.03L63.89 23.38L62.62 23.38L61.36 23.38L61.36 30.84L61.36 38.29Z" id="e1CEfqM6TZ"></path><path d="M33.35 36.95C33.96 38.01 35.65 38.67 37.27 38.44C38.86 38.24 39.16 37.89 38.71 36.85C38.38 36.09 38.3 36.04 37.75 36.3C36.86 36.7 35.85 36.37 35.57 35.61C35.42 35.26 35.32 33.79 35.32 32.33C35.32 32.15 35.32 31.28 35.32 29.7L36.84 29.7L38.35 29.7L38.35 28.69L38.35 27.7L36.91 27.63L35.45 27.55L35.37 26.34L35.3 25.15L34.03 25.15L32.77 25.15L32.84 30.63C32.94 34.39 33.11 36.5 33.35 36.95Z" id="aNyd6hvsI"></path><path d="M0.99 29.67C-0.83 32.43 -0.07 36.12 2.66 37.71C3.67 38.32 4.13 38.42 5.74 38.42C7.79 38.42 9.13 37.91 10.22 36.73C11.56 35.28 11.96 32.5 11.08 30.58C9.76 27.68 6.05 26.54 2.94 28.11C2.15 28.51 1.35 29.17 0.99 29.67ZM7.46 35.92C7.13 36.12 6.35 36.25 5.69 36.27C2.28 36.3 1.27 31.44 4.35 29.85C5.29 29.34 6.02 29.34 7.13 29.8C9.49 30.79 9.69 34.7 7.46 35.92Z" id="c2Vssf0R7"></path><path d="M12.82 38.29L14.09 38.29L15.35 38.29C15.35 36.28 15.35 35.15 15.35 34.93C15.35 32.07 15.43 31.47 15.86 30.79C16.69 29.37 18.81 29.17 19.95 30.38C20.51 30.96 20.53 31.24 20.61 34.65C20.61 34.9 20.64 36.11 20.68 38.29L21.95 38.29L23.19 38.29C23.19 36.32 23.19 35.23 23.19 35.01C23.19 31.44 23.41 30.53 24.5 30.03C25.54 29.52 25.92 29.47 26.83 29.72C28.27 30.13 28.5 30.86 28.5 34.88C28.5 35.11 28.5 36.25 28.5 38.29L29.78 38.29L31.07 38.29C31.01 35.81 30.98 34.42 30.97 34.15C30.9 29.62 30.8 29.29 29.2 28.11C27.81 27.07 24.48 27.32 23.14 28.56C23.09 28.6 22.87 28.8 22.48 29.17C22.15 28.8 21.96 28.6 21.92 28.56C21.59 28.21 20.94 27.8 20.46 27.65C19.19 27.25 16.99 27.47 16.11 28.13C15.17 28.84 15.1 28.81 15.1 28.05C15.1 27.47 15 27.42 13.96 27.42C13.88 27.42 13.51 27.42 12.82 27.42L12.82 32.86L12.82 38.29Z" id="eDLrFP1mX"></path><path d="M38.86 31.09C38.35 32.63 38.63 34.83 39.52 36.09C40.7 37.76 42.1 38.42 44.55 38.42C46.32 38.42 46.72 38.32 47.78 37.71C48.44 37.33 48.97 36.93 48.97 36.8C48.97 36.7 48.67 36.32 48.29 35.97C47.66 35.36 47.53 35.34 47.08 35.66C46.19 36.32 44.77 36.57 43.64 36.27C42.58 35.97 41.26 34.93 41.49 34.55C41.56 34.43 43.38 34.02 45.58 33.62C47.78 33.21 49.58 32.76 49.65 32.58C49.88 32 49.2 30.18 48.39 29.27C47.96 28.76 47.13 28.16 46.57 27.9C45.26 27.3 43.08 27.3 41.77 27.9C40.53 28.46 39.26 29.85 38.86 31.09ZM47.2 31.42C47.2 31.62 42.32 32.73 41.36 32.73C40.68 32.73 41.21 30.96 42.15 30.13C42.78 29.57 43.16 29.45 44.19 29.45C45.33 29.45 45.58 29.55 46.34 30.3C46.82 30.79 47.2 31.27 47.2 31.42Z" id="du2zoDhLq"></path><path d="M50.44 30.66C49.68 32.35 49.88 34.63 50.89 36.07C52.79 38.77 57.06 39.35 59.46 37.26C59.94 36.83 60.35 36.35 60.35 36.17C60.35 36.02 59.94 35.66 59.46 35.41C59.4 35.38 59.12 35.22 58.6 34.93C58.13 35.34 57.87 35.57 57.82 35.61C56.88 36.37 55.21 36.5 54.05 35.89C53.17 35.44 52.51 34.12 52.51 32.78C52.51 30 55.9 28.46 57.95 30.33C57.99 30.37 58.22 30.58 58.63 30.96L59.59 30.43L60.57 29.88C60.29 29.47 60.13 29.24 60.09 29.19C59.82 28.81 59.16 28.28 58.65 28.03C57.49 27.47 54.71 27.32 53.57 27.75C52.26 28.26 50.97 29.42 50.44 30.66Z" id="a2Q755fvcc"></path></defs><g><g><g><use xlink:href="#a1rPEz3QuV" opacity="1" fill="#ffffff" fill-opacity="1"></use><g><use xlink:href="#a1rPEz3QuV" opacity="1" fill-opacity="0" stroke="#000000" stroke-width="1" stroke-opacity="0"></use></g></g><g><use xlink:href="#aarWkYwcg" opacity="1" fill="#ffffff" fill-opacity="1"></use><g><use xlink:href="#aarWkYwcg" opacity="1" fill-opacity="0" stroke="#000000" stroke-width="1" stroke-opacity="0"></use></g></g><g><use xlink:href="#a3ifSHEulf" opacity="1" fill="#ffffff" fill-opacity="1"></use><g><use xlink:href="#a3ifSHEulf" opacity="1" fill-opacity="0" stroke="#000000" stroke-width="1" stroke-opacity="0"></use></g></g><g><use xlink:href="#e1CEfqM6TZ" opacity="1" fill="#ffffff" fill-opacity="1"></use><g><use xlink:href="#e1CEfqM6TZ" opacity="1" fill-opacity="0" stroke="#000000" stroke-width="1" stroke-opacity="0"></use></g></g><g><use xlink:href="#aNyd6hvsI" opacity="1" fill="#ffffff" fill-opacity="1"></use><g><use xlink:href="#aNyd6hvsI" opacity="1" fill-opacity="0" stroke="#000000" stroke-width="1" stroke-opacity="0"></use></g></g><g><use xlink:href="#c2Vssf0R7" opacity="1" fill="#ffffff" fill-opacity="1"></use><g><use xlink:href="#c2Vssf0R7" opacity="1" fill-opacity="0" stroke="#000000" stroke-width="1" stroke-opacity="0"></use></g></g><g><use xlink:href="#eDLrFP1mX" opacity="1" fill="#ffffff" fill-opacity="1"></use><g><use xlink:href="#eDLrFP1mX" opacity="1" fill-opacity="0" stroke="#000000" stroke-width="1" stroke-opacity="0"></use></g></g><g><use xlink:href="#du2zoDhLq" opacity="1" fill="#ffffff" fill-opacity="1"></use><g><use xlink:href="#du2zoDhLq" opacity="1" fill-opacity="0" stroke="#000000" stroke-width="1" stroke-opacity="0"></use></g></g><g><use xlink:href="#a2Q755fvcc" opacity="1" fill="#ffffff" fill-opacity="1"></use><g><use xlink:href="#a2Q755fvcc" opacity="1" fill-opacity="0" stroke="#000000" stroke-width="1" stroke-opacity="0"></use></g></g></g></g></svg>